<svg version="1.1" xmlns="http://www.w3.org/2000/svg" xmlns:xlink="http://www.w3.org/1999/xlink" width="179" height="466.63638" viewBox="0,0,179,466.63638"><g transform="translate(-213,-121.36362)"><g data-paper-data="{&quot;isPaintingLayer&quot;:true}" fill-rule="nonzero" stroke="none" stroke-width="1" stroke-linecap="butt" stroke-linejoin="miter" stroke-miterlimit="10" stroke-dasharray="" stroke-dashoffset="0" style="mix-blend-mode: normal"><path d="M296,572c0,-8.83656 7.16344,-16 16,-16c8.83656,0 16,7.16344 16,16c0,8.83656 -7.16344,16 -16,16c-8.83656,0 -16,-7.16344 -16,-16z" fill="#ffffff"/><path d="M360,556c0,-8.83656 7.16344,-16 16,-16c8.83656,0 16,7.16344 16,16c0,8.83656 -7.16344,16 -16,16c-8.83656,0 -16,-7.16344 -16,-16z" fill="#ffffff"/><g data-paper-data="{&quot;index&quot;:null}" fill="#4f83d1"><path d="M266.78182,205.02424h-2.98788v-2.98788h2.98788z"/><path d="M272.75758,205.02424h-2.98788v-2.98788h2.98788z"/><path d="M213.59758,146.46182c-0.37618,-0.28214 -0.59758,-0.72492 -0.59758,-1.19515v-13.44545c0,-0.56586 0.31971,-1.08316 0.82583,-1.33622c0.50612,-0.25306 1.11178,-0.19845 1.56447,0.14107l5.57688,4.18303h2.4904c2.79885,-0.02114 5.44184,1.28649 7.1231,3.5242l7.37857,8.86504c0.31711,0.32118 0.59906,0.67525 0.84109,1.05622h5.57239c2.47524,0 4.48182,2.00658 4.48182,4.48182c-0.0037,0.77217 -0.20974,1.52987 -0.59758,2.19758c1.29965,0.81673 2.08931,2.2432 2.09152,3.77817c-0.00031,0.58202 -0.11556,1.15825 -0.33912,1.69562c1.48422,0.38109 2.66634,1.50175 3.12604,2.96354c0.4597,1.46179 0.13176,3.05733 -0.8672,4.21932c-0.85053,1.00245 -2.099,1.57997 -3.41365,1.57909h-8.96364c-0.20894,0.00006 -0.41557,-0.04371 -0.60654,-0.12848l-13.44545,-5.97576c-0.31651,-0.14161 -0.57451,-0.38801 -0.73054,-0.69767l-5.8174,-11.63629zM244.37273,151.24242h-4.65661c-0.00998,1.06355 -0.32808,2.1014 -0.91578,2.98788h5.57239c0.82508,0 1.49394,-0.66886 1.49394,-1.49394c0,-0.82508 -0.66886,-1.49394 -1.49394,-1.49394zM245.86667,157.21818h-6.85121l2.98788,2.98788h3.86333c0.82508,0 1.49394,-0.66886 1.49394,-1.49394c0,-0.82508 -0.66886,-1.49394 -1.49394,-1.49394zM221.80528,149.08069l5.73673,11.47047l12.66562,5.63066h8.64692c0.44233,0.00063 0.8622,-0.19478 1.14654,-0.53362c0.28433,-0.33884 0.4039,-0.78625 0.32649,-1.22176c-0.18354,-0.74581 -0.86532,-1.26042 -1.63288,-1.2325h-7.30985c-0.39618,-0.00008 -0.77611,-0.15754 -1.05622,-0.43772l-13.44545,-13.44545l2.11243,-2.11243l6.41348,6.41348l0.43772,-0.43772c0.56779,-0.50848 0.88461,-1.23997 0.86708,-2.00196c-0.01753,-0.76199 -0.36765,-1.47814 -0.95821,-1.95997l-7.44729,-8.93824c-1.11282,-1.57128 -2.92549,-2.49688 -4.85082,-2.47695h-2.98788c-0.32324,0 -0.63777,-0.10484 -0.89636,-0.29879l-3.58545,-2.68909v9.71061l5.37818,4.03364c0.18535,0.13932 0.33572,0.31987 0.43922,0.52736z"/><path d="M256.32424,203.5303v-38.84242c0.19009,-3.99365 2.26542,-7.65971 5.59182,-9.87793l1.2325,-0.74697c-0.51335,-0.24346 -0.84278,-0.75849 -0.84856,-1.32662v-8.96364c0,-0.82508 0.66886,-1.49394 1.49394,-1.49394h2.98788v-4.48182c0,-0.82508 0.66886,-1.49394 1.49394,-1.49394h1.49394v-5.97576h-11.95152c-0.82508,0 -1.49394,-0.66886 -1.49394,-1.49394v-2.98788c0.00002,-0.68524 0.46621,-1.28261 1.13091,-1.44912l11.95152,-2.98788c0.11872,-0.02975 0.24064,-0.04481 0.36303,-0.04482h11.95152c2.47524,0 4.48182,2.00658 4.48182,4.48182c0,2.47524 -2.00658,4.48182 -4.48182,4.48182v5.97576h1.49394c0.82508,0 1.49394,0.66886 1.49394,1.49394v4.48182h2.98788c0.82508,0 1.49394,0.66886 1.49394,1.49394v8.96364c-0.0032,0.57117 -0.33371,1.08988 -0.85005,1.33409l1.2325,0.74697c3.32473,2.21651 5.40032,5.87928 5.59331,9.87046v38.84242c-0.00494,4.12335 -3.34634,7.46476 -7.4697,7.4697h-23.90303c-4.12335,-0.00494 -7.46476,-3.34634 -7.4697,-7.4697zM263.45482,157.36758c-2.43157,1.67464 -3.95895,4.37358 -4.14269,7.3203v0.09711c0.83637,0.10288 1.63437,0.41079 2.32308,0.89636c0.20169,0.15136 0.42607,0.26985 0.6648,0.35108v-4.33242c0,-0.82508 0.66886,-1.49394 1.49394,-1.49394h7.4697v-5.97576h-2.57406zM265.28788,163.19394v20.91515h20.91515v-20.91515zM277.23939,160.20606v-5.97576h-2.98788v5.97576zM283.21515,125.84545c0,-0.82508 -0.66886,-1.49394 -1.49394,-1.49394h-11.76776l-10.64133,2.66071v0.32717h22.40909c0.82508,0 1.49394,-0.66886 1.49394,-1.49394zM272.75758,130.32727v5.97576h5.97576v-5.97576zM281.72121,139.29091h-11.95152v2.98788h11.95152zM286.20303,145.26667h-2.98788v2.98788h-2.98788v-2.98788h-2.98788v2.98788h-2.98788v-2.98788h-2.98788v2.98788h-2.98788v-2.98788h-2.98788v5.97576h20.91515zM292.17879,164.68788c-0.18375,-2.94672 -1.71112,-5.64566 -4.14269,-7.3203l-5.22879,-3.13727h-2.58003v5.97576h7.4697c0.82508,0 1.49394,0.66886 1.49394,1.49394v4.33242c0.23778,-0.07872 0.46201,-0.1936 0.6648,-0.34062c0.68769,-0.48929 1.48576,-0.80082 2.32308,-0.90682zM292.17879,203.5303v-35.70515c-0.23808,0.078 -0.46242,0.19294 -0.6648,0.34062c-0.68653,0.49222 -1.48499,0.80544 -2.32308,0.9113v16.52596c0,0.82508 -0.66886,1.49394 -1.49394,1.49394h-23.90303c-0.82508,0 -1.49394,-0.66886 -1.49394,-1.49394v-16.52596c-0.83755,-0.10409 -1.63596,-0.41524 -2.32308,-0.90533c-0.20241,-0.14912 -0.42666,-0.26603 -0.6648,-0.34659v35.70515c0,2.47524 2.00658,4.48182 4.48182,4.48182h23.90303c2.47524,0 4.48182,-2.00658 4.48182,-4.48182z"/><path d="M280.22727,167.67576v1.49394h1.49394c0.82508,0 1.49394,0.66886 1.49394,1.49394v5.97576c0,0.82508 -0.66886,1.49394 -1.49394,1.49394h-1.49394v1.49394c0,0.82508 -0.66886,1.49394 -1.49394,1.49394h-5.97576c-0.82508,0 -1.49394,-0.66886 -1.49394,-1.49394v-1.49394h-1.49394c-0.82508,0 -1.49394,-0.66886 -1.49394,-1.49394v-5.97576c0,-0.82508 0.66886,-1.49394 1.49394,-1.49394h1.49394v-1.49394c0,-0.82508 0.66886,-1.49394 1.49394,-1.49394h5.97576c0.82508,0 1.49394,0.66886 1.49394,1.49394zM277.23939,170.66364v-1.49394h-2.98788v1.49394c0,0.82508 -0.66886,1.49394 -1.49394,1.49394h-1.49394v2.98788h1.49394c0.82508,0 1.49394,0.66886 1.49394,1.49394v1.49394h2.98788v-1.49394c0,-0.82508 0.66886,-1.49394 1.49394,-1.49394h1.49394v-2.98788h-1.49394c-0.82508,0 -1.49394,-0.66886 -1.49394,-1.49394z"/><path d="M248.77835,139.76299c-0.47256,1.66045 -1.84267,2.91142 -3.53914,3.23139c-0.25794,0.04548 -0.51941,0.06798 -0.78133,0.06723c-1.5283,-0.01438 -2.96749,-0.7216 -3.91263,-1.9227c-1.19029,-1.5638 -1.39612,-3.66545 -0.53184,-5.43047c2.13484,-4.91506 10.59054,-6.66446 11.54815,-6.84822c0.59131,-0.11321 1.1928,0.13958 1.5257,0.64122c0.3329,0.50164 0.33216,1.15408 -0.00188,1.65497c-1.75489,2.69769 -3.1997,5.58483 -4.30703,8.60658zM242.75479,136.90061c-0.41934,0.75652 -0.36585,1.68683 0.13744,2.3903c0.43345,0.5608 1.13147,0.85013 1.83456,0.76042c0.61051,-0.13946 1.08482,-0.62017 1.21607,-1.2325c0.72548,-2.08274 1.62814,-4.09947 2.69805,-6.02805c-2.3918,0.87097 -5.08238,2.25734 -5.88612,4.10983z"/><path d="M283.21515,193.07273c2.47524,0 4.48182,2.00658 4.48182,4.48182c0,2.47524 -2.00658,4.48182 -4.48182,4.48182c-2.47524,0 -4.48182,-2.00658 -4.48182,-4.48182c0,-2.47524 2.00658,-4.48182 4.48182,-4.48182zM283.21515,199.04848c0.82508,0 1.49394,-0.66886 1.49394,-1.49394c0,-0.82508 -0.66886,-1.49394 -1.49394,-1.49394c-0.82508,0 -1.49394,0.66886 -1.49394,1.49394c0,0.82508 0.66886,1.49394 1.49394,1.49394z"/><path d="M271.26364,190.08485c2.47524,0 4.48182,2.00658 4.48182,4.48182c0,2.47524 -2.00658,4.48182 -4.48182,4.48182c-2.47524,0 -4.48182,-2.00658 -4.48182,-4.48182c0,-2.47524 2.00658,-4.48182 4.48182,-4.48182zM271.26364,196.06061c0.82508,0 1.49394,-0.66886 1.49394,-1.49394c0,-0.82508 -0.66886,-1.49394 -1.49394,-1.49394c-0.82508,0 -1.49394,0.66886 -1.49394,1.49394c0,0.82508 0.66886,1.49394 1.49394,1.49394z"/><path d="M266.78182,205.02424h-2.98788v-2.98788h2.98788z"/><path d="M272.75758,205.02424h-2.98788v-2.98788h2.98788z"/></g></g></g></svg>